{"title":"A.Norml.Life.2011 .DVDRip.XviD.AC3-PRESTiGE.","uid":6996835,"size":786699048,"categoryP":"video","categoryS":"movies","magnet":"?xt=urn:btih:5b8ade52f8c302a0baaf0f179723d70348693b17&amp;dn=A.Norml.Life.2011+.DVDRip.XviD.AC3-PRESTiGE.&amp;tr=udp%3A%2F%2Ftracker.openbittorrent.com%3A80&amp;tr=udp%3A%2F%2Fopen.demonii.com%3A1337&amp;tr=udp%3A%2F%2Ftracker.coppersurfer.tk%3A6969&amp;tr=udp%3A%2F%2Fexodus.desync.com%3A6969","seeders":0,"leechers":1,"uploader":"moviesp2p","files":3,"time":1327918047,"description":"RELEASE NAME........: A.Norml.Life.2011 .DVDRip.XviD.AC3-PRESTiGE\nRELEASE DATE........:\nDVD DATE............:\nTHEATRE DATE........: (2011)\nFILE SIZE...........  726 MiB \nSIZE................. 726 MiB\nSOURCE...............A.Norml.Life.2011.NTSC.DVDR THANX\nAUDIO...............:same as above BIG THANKS\n......................................................................................\nGeneral\nComplete name                    : A.Norml.Life.2011 .DVDRip.XviD.AC3-PRESTiGE.avi\nFormat                           : AVI\nFormat/Info                      : Audio Video Interleave\nFile size                        : 726 MiB\nDuration                         : 59mn 46s\nOverall bit rate                 : 1 698 Kbps\nWriting application              : VirtualDubMod 1.5.10.2 (build 2540/release)\nWriting library                  : VirtualDubMod build 2540/release\n\nVideo\nID                               : 0\nFormat                           : MPEG-4 Visual\nFormat profile                   : Advanced Simple@L5\nFormat settings, BVOP            : 2\nFormat settings, QPel            : No\nFormat settings, GMC             : No warppoints\nFormat settings, Matrix          : Default (H.263)\nCodec ID                         : XVID\nCodec ID/Hint                    : XviD\nDuration                         : 59mn 46s\nBit rate                         : 1 494 Kbps\nWidth                            : 720 pixels\nHeight                           : 400 pixels\nDisplay aspect ratio             : 16:9\nFrame rate                       : 29.970 fps\nColor space                      : YUV\nChroma subsampling               : 4:2:0\nBit depth                        : 8 bits\nScan type                        : Progressive\nCompression mode                 : Lossy\nBits/(Pixel*Frame)               : 0.173\nStream size                      : 639 MiB (88%)\nWriting library                  : XviD 1.2.1 (UTC 2008-12-04)\n\nAudio\nID                               : 1\nFormat                           : AC-3\nFormat/Info                      : Audio Coding 3\nMode extension                   : CM (complete main)\nCodec ID                         : 2000\nDuration                         : 59mn 46s\nBit rate mode                    : Constant\nBit rate                         : 192 Kbps\nChannel(s)                       : 2 channels\nChannel positions                : Front: L R\nSampling rate                    : 48.0 KHz\nBit depth                        : 16 bits\nCompression mode                 : Lossy\nStream size                      : 82.1 MiB (11%)\nAlignment                        : Split accross interleaves\nInterleave, duration             : 33 ms (1.00 video frame)\nInterleave, preload duration     : 500 ms\n..................................................................................... &lt;a href=&quot;\nhttp://www.imdb.com/title/tt1729609/&quot; rel=&quot;nofollow&quot; target=&quot;_NEW&quot;&gt;\nhttp://www.imdb.com/title/tt1729609/&lt;/a&gt;\nPLOT:\nA documentary on the current state of medical marijuana in America. Personal stories from patients, doctors and caregivers verify its medical effectiveness while leading activist rally support to end prohibition. \nCAST:\nRuss Belville \t... \tHimself\nDominic Corva \t... \tHimself\nTonya Davis \t... \tHerself\nStephen W. Dillon \t... \tHimself\nJodie Emery \t... \tHerself\nSabrina Fendrick \t... \tHerself\nGatewood Galbraith \t... \tHimself\nDouglas Hiatt \t... \tHimself\nFrank H. Lucido \t... \tHimself\nRay Manzarek \t... \tHimself\nTodd McCormick \t... \tHimself\nVivian McPeak \t... \tHimself\nBarnes Mike \t... \tHimself\nElvy Mussikka \t... \tHerself\nWilliam G. Panzer \t... \tHimself \n\n\nGreetz:\n| Bigguy | DiLLoN | Thorn | Flawl3ss | SceneLovers | Lady | BMB | akosipalos | HiTM4N | PA4U2C | JungleDave | Godfather23 | Dreamer | CTFX | Defqon |","torrent":{"xt":"urn:btih:5b8ade52f8c302a0baaf0f179723d70348693b17","amp;dn":"A.Norml.Life.2011+.DVDRip.XviD.AC3-PRESTiGE.","amp;tr":["udp%3A%2F%2Ftracker.openbittorrent.com%3A80","udp%3A%2F%2Fopen.demonii.com%3A1337","udp%3A%2F%2Ftracker.coppersurfer.tk%3A6969","udp%3A%2F%2Fexodus.desync.com%3A6969"],"infoHash":"5b8ade52f8c302a0baaf0f179723d70348693b17","infoHashBuffer":{"type":"Buffer","data":[91,138,222,82,248,195,2,160,186,175,15,23,151,35,215,3,72,105,59,23]},"announce":[],"urlList":[]}}